name C:\Users\r0593348\3dpredictsim\Results\batch_windlass\Pog_s1_tmt_bCst_d05_k500_WL40_ig24_act_TTC.mot
datacolumns 128
datarows 4
range 0.00000000 0.03402057
endheader
time	pelvis_tilt	pelvis_list	pelvis_rotation	pelvis_tx	pelvis_ty	pelvis_tz	hip_flexion_l	hip_adduction_l	hip_rotation_l	hip_flexion_r	hip_adduction_r	hip_rotation_r	knee_angle_l	knee_angle_r	ankle_angle_l	ankle_angle_r	subtalar_angle_l	subtalar_angle_r	tmt_angle_l	tmt_angle_r	mtp_angle_l	mtp_angle_r	lumbar_extension	lumbar_bending	lumbar_rotation	arm_flex_l	arm_add_l	arm_rot_l	arm_flex_r	arm_add_r	arm_rot_r	elbow_flex_l	elbow_flex_r	pro_sup_l	pro_sup_r	glut_med1_l/activation	glut_med2_l/activation	glut_med3_l/activation	glut_min1_l/activation	glut_min2_l/activation	glut_min3_l/activation	semimem_l/activation	semiten_l/activation	bifemlh_l/activation	bifemsh_l/activation	sar_l/activation	add_long_l/activation	add_brev_l/activation	add_mag1_l/activation	add_mag2_l/activation	add_mag3_l/activation	tfl_l/activation	pect_l/activation	grac_l/activation	glut_max1_l/activation	glut_max2_l/activation	glut_max3_l/activation	iliacus_l/activation	psoas_l/activation	quad_fem_l/activation	gem_l/activation	peri_l/activation	rect_fem_l/activation	vas_med_l/activation	vas_int_l/activation	vas_lat_l/activation	med_gas_l/activation	lat_gas_l/activation	soleus_l/activation	tib_post_l/activation	flex_dig_l/activation	flex_hal_l/activation	tib_ant_l/activation	per_brev_l/activation	per_long_l/activation	per_tert_l/activation	ext_dig_l/activation	ext_hal_l/activation	ercspn_l/activation	intobl_l/activation	extobl_l/activation	glut_med1_r/activation	glut_med2_r/activation	glut_med3_r/activation	glut_min1_r/activation	glut_min2_r/activation	glut_min3_r/activation	semimem_r/activation	semiten_r/activation	bifemlh_r/activation	bifemsh_r/activation	sar_r/activation	add_long_r/activation	add_brev_r/activation	add_mag1_r/activation	add_mag2_r/activation	add_mag3_r/activation	tfl_r/activation	pect_r/activation	grac_r/activation	glut_max1_r/activation	glut_max2_r/activation	glut_max3_r/activation	iliacus_r/activation	psoas_r/activation	quad_fem_r/activation	gem_r/activation	peri_r/activation	rect_fem_r/activation	vas_med_r/activation	vas_int_r/activation	vas_lat_r/activation	med_gas_r/activation	lat_gas_r/activation	soleus_r/activation	tib_post_r/activation	flex_dig_r/activation	flex_hal_r/activation	tib_ant_r/activation	per_brev_r/activation	per_long_r/activation	per_tert_r/activation	ext_dig_r/activation	ext_hal_r/activation	ercspn_r/activation	intobl_r/activation	extobl_r/activation	
          0.00000000	         -2.92651911	         -0.53489842	          6.51615929	          0.00000000	          0.86531438	         -0.00146379	        -13.75269800	         -1.40729638	          6.19422028	         31.64634031	         -0.20903059	         -3.34942467	        -17.55877970	        -20.71409455	         -6.40680599	          6.49189627	         18.00636912	          8.95615278	        -14.23975798	         -0.02425537	         35.49514759	          0.16788456	          0.55693496	         -1.49774419	         -1.99414124	          2.51008769	        -13.48301497	         14.91538262	        -14.19259993	        -13.46160892	          6.17561316	         40.26512773	         20.86778272	         86.51662706	         86.51662706	          0.15416966	          0.07068476	          0.05000336	          0.17372788	          0.12605985	          0.07100083	          0.05000203	          0.05000024	          0.05000028	          0.05000012	          0.07069863	          0.18567794	          0.06907247	          0.05555671	          0.05008157	          0.05666415	          0.15210299	          0.05000329	          0.05000074	          0.05003774	          0.05011007	          0.07068070	          0.21613930	          0.39936154	          0.07437494	          0.05001320	          0.05000226	          0.18598266	          0.08404796	          0.09103362	          0.05946349	          0.12537419	          0.17752519	          0.05000001	          0.11227214	          0.10226025	          0.12490857	          0.34805840	          0.42009399	          0.32547362	          0.65138614	          0.47909025	          0.21294849	          0.05000014	          0.05000135	          0.05000013	          0.05000057	          0.05944745	          0.09226382	          0.05945354	          0.05944354	          0.05000522	          0.07068338	          0.06924314	          0.10483051	          0.05944795	          0.05253785	          0.07141143	          0.14751480	          0.16464668	          0.15273799	          0.12135903	          0.05000228	          0.05000626	          0.07068726	          0.05929310	          0.05653912	          0.13035390	          0.07068570	          0.06816794	          0.16626519	          0.05944990	          0.09421701	          0.05002897	          0.07872226	          0.08753758	          0.07023377	          0.07068640	          0.07068639	          0.07068639	          0.05945141	          0.06878286	          0.07068381	          0.49799911	          0.16026780	          0.14009796	          0.14810116	          0.54355554	          0.17185479	          0.05000008	          0.10622829	          0.10398367	
          0.01134019	         -2.91538175	         -0.42980912	          6.61934315	          0.01777024	          0.86427584	         -0.00120507	        -13.89506765	         -1.51737452	          5.96102711	         31.09691489	         -0.03058592	         -3.17333362	        -18.80719414	        -20.14615047	         -8.51900781	          6.03173353	         18.37054852	          8.71339866	        -14.40713034	         -0.09023219	         35.14077362	          0.32949956	          0.76794531	         -1.34670689	         -2.07698427	          2.24645366	        -13.52389578	         15.27778644	        -15.36178123	        -13.44991933	          6.10023486	         41.02386882	         20.86470258	         86.51662706	         86.51662706	          0.12966303	          0.05945016	          0.05000089	          0.14611233	          0.10602162	          0.05971532	          0.05018676	          0.05945025	          0.05945261	          0.05000591	          0.05946086	          0.19630832	          0.16031361	          0.12858537	          0.05010884	          0.07670220	          0.12792489	          0.05000959	          0.05944502	          0.05002629	          0.05008033	          0.05945093	          0.18178199	          0.41372779	          0.15354241	          0.05000131	          0.05000113	          0.15641899	          0.07068781	          0.07656303	          0.05001125	          0.10544480	          0.14930592	          0.05000000	          0.09442545	          0.08600512	          0.10505323	          0.42611546	          0.38957581	          0.30388398	          0.69045955	          0.62743177	          0.27241384	          0.05000009	          0.05893275	          0.06501799	          0.05945024	          0.05000153	          0.14056508	          0.05000378	          0.05000178	          0.05000322	          0.05945021	          0.05945045	          0.08816687	          0.05000060	          0.05000072	          0.06006357	          0.14138529	          0.23642877	          0.21032195	          0.14838394	          0.05000033	          0.05944964	          0.05945173	          0.05000107	          0.05000283	          0.16559259	          0.05944967	          0.05733213	          0.14966441	          0.05000348	          0.08382464	          0.05000011	          0.17218412	          0.17143094	          0.14448705	          0.05945016	          0.05945017	          0.05945015	          0.05000118	          0.05944915	          0.05945022	          0.57967000	          0.18602914	          0.12888881	          0.28122087	          0.59921935	          0.28320566	          0.05000013	          0.08934234	          0.08745451	
          0.02268038	         -2.89766351	         -0.33153158	          6.69324208	          0.03560882	          0.86261901	         -0.00094857	        -13.84200687	         -1.59545157	          5.73039674	         30.45534949	          0.16350780	         -2.94663116	        -20.54964239	        -20.12052388	        -10.13961105	          5.50455749	         18.64639687	          8.44576173	        -13.87844829	         -0.14159085	         33.11020999	          0.52251085	          0.97277874	         -1.17630406	         -2.14821250	          1.94684200	        -13.58382692	         15.58383786	        -16.46649084	        -13.45894192	          6.13317210	         41.77585792	         20.75466240	         86.51662706	         86.51662706	          0.10905195	          0.05000053	          0.07235843	          0.12288655	          0.08916866	          0.05022452	          0.05000554	          0.05000047	          0.05000250	          0.05000022	          0.05000991	          0.20967655	          0.29087020	          0.28241068	          0.12560932	          0.11548286	          0.10759014	          0.06345255	          0.05000696	          0.05000203	          0.05000144	          0.05000193	          0.15288609	          0.34796227	          0.12915452	          0.11882422	          0.07288941	          0.13155474	          0.05945148	          0.09993111	          0.09993126	          0.08868337	          0.12557237	          0.05407244	          0.07941566	          0.07233392	          0.08835411	          0.57497606	          0.37126340	          0.26693042	          0.58070465	          0.52769567	          0.22911115	          0.05681441	          0.06999452	          0.07068621	          0.05000019	          0.05000089	          0.17964616	          0.05000020	          0.05000027	          0.05000280	          0.05000009	          0.05000041	          0.07415196	          0.05000010	          0.05000051	          0.05051601	          0.11891088	          0.25512401	          0.24332726	          0.15011599	          0.05944969	          0.05000140	          0.05000156	          0.05945024	          0.05945034	          0.17528385	          0.05000007	          0.05000013	          0.31574027	          0.07701008	          0.09769432	          0.09081015	          0.30248689	          0.28686029	          0.24502668	          0.05000001	          0.05000003	          0.05000000	          0.05000003	          0.05000079	          0.05000028	          0.70241202	          0.17070851	          0.11228538	          0.59067513	          0.64905396	          0.33694409	          0.05000001	          0.07514057	          0.07355281	
          0.03402057	         -2.87455360	         -0.25048336	          6.73412792	          0.05347133	          0.86046460	         -0.00071053	        -13.64774602	         -1.66214374	          5.52367309	         29.65962259	          0.33574955	         -2.65786127	        -22.67065255	        -20.66590540	        -11.31320655	          5.14973766	         18.89666449	          8.13091676	        -12.68699615	         -0.44270851	         29.53098735	          0.65423275	          1.17298039	         -0.97790327	         -2.20297825	          1.61708553	        -13.65177879	         15.83165754	        -17.48616032	        -13.49096516	          6.29699392	         42.50569366	         20.51183508	         86.51662706	         86.51662706	          0.17599387	          0.05000451	          0.06085659	          0.10335273	          0.07499473	          0.05000088	          0.05760493	          0.05000360	          0.05298319	          0.05000060	          0.05056238	          0.17634670	          0.26970250	          0.23751929	          0.10564951	          0.09712679	          0.09048782	          0.06251899	          0.05944993	          0.05022513	          0.05329081	          0.09995029	          0.12858348	          0.32751564	          0.10862461	          0.09993616	          0.06130302	          0.11064289	          0.05000115	          0.08404617	          0.08404628	          0.07458633	          0.10561150	          0.05000001	          0.06679183	          0.06083591	          0.07430949	          0.48357839	          0.31224771	          0.22449938	          0.49808835	          0.73103571	          0.31933854	          0.08461037	          0.05886828	          0.05945021	          0.24365094	          0.35742473	          0.53283124	          0.28836774	          0.13031395	          0.45900186	          0.07068634	          0.05000036	          0.08141951	          0.05000019	          0.05000151	          0.05945124	          0.10000913	          0.21456976	          0.20464831	          0.16107694	          0.05000024	          0.05946175	          0.07068628	          0.05000015	          0.05000019	          0.19544720	          0.05944972	          0.05000140	          0.26555046	          0.09993671	          0.34326493	          0.07637504	          0.30313097	          0.29822667	          0.25711180	          0.05945008	          0.05945004	          0.05945014	          0.08203454	          0.05000057	          0.05000585	          0.65492354	          0.14357283	          0.09443659	          0.49678195	          0.62848659	          0.28338428	          0.05080222	          0.06936175	          0.06186092	
